<svg width="32" height="32" viewBox="0 0 32 32" fill="none" xmlns="http://www.w3.org/2000/svg">
<path d="M29.2985 24.4403C29.2985 24.9203 29.1919 25.4137 28.9652 25.8937C28.7385 26.3737 28.4452 26.827 28.0585 27.2537C27.4052 27.9737 26.6852 28.4937 25.8719 28.827C25.0719 29.1603 24.2052 29.3337 23.2719 29.3337C21.9119 29.3337 20.4585 29.0137 18.9252 28.3603C17.3919 27.707 15.8585 26.827 14.3385 25.7203C12.8052 24.6003 11.3519 23.3603 9.96521 21.987C8.59187 20.6003 7.35187 19.147 6.24521 17.627C5.15187 16.107 4.27187 14.587 3.63187 13.0803C2.99188 11.5603 2.67188 10.107 2.67188 8.72033C2.67188 7.81366 2.83187 6.94699 3.15187 6.14699C3.47187 5.33366 3.97854 4.58699 4.68521 3.92033C5.53854 3.08033 6.47187 2.66699 7.45854 2.66699C7.83187 2.66699 8.20521 2.74699 8.53854 2.90699C8.88521 3.06699 9.19187 3.30699 9.43187 3.65366L12.5252 8.01366C12.7652 8.34699 12.9385 8.65366 13.0585 8.94699C13.1785 9.22699 13.2452 9.50699 13.2452 9.76033C13.2452 10.0803 13.1519 10.4003 12.9652 10.707C12.7919 11.0137 12.5385 11.3337 12.2185 11.6537L11.2052 12.707C11.0585 12.8537 10.9919 13.027 10.9919 13.2403C10.9919 13.347 11.0052 13.4403 11.0319 13.547C11.0719 13.6537 11.1119 13.7337 11.1385 13.8137C11.3785 14.2537 11.7919 14.827 12.3785 15.5203C12.9785 16.2137 13.6185 16.9203 14.3119 17.627C15.0319 18.3337 15.7252 18.987 16.4319 19.587C17.1252 20.1737 17.6985 20.5737 18.1519 20.8137C18.2185 20.8403 18.2985 20.8803 18.3919 20.9203C18.4985 20.9603 18.6052 20.9737 18.7252 20.9737C18.9519 20.9737 19.1252 20.8937 19.2719 20.747L20.2852 19.747C20.6185 19.4137 20.9385 19.1603 21.2452 19.0003C21.5519 18.8137 21.8585 18.7203 22.1919 18.7203C22.4452 18.7203 22.7119 18.7737 23.0052 18.8937C23.2985 19.0137 23.6052 19.187 23.9385 19.4137L28.3519 22.547C28.6985 22.787 28.9385 23.067 29.0852 23.4003C29.2185 23.7337 29.2985 24.067 29.2985 24.4403Z" stroke="#525252" stroke-width="2" stroke-miterlimit="10"/>
</svg>
