<svg width="34" height="35" viewBox="0 0 34 35" fill="none" xmlns="http://www.w3.org/2000/svg">
<path d="M31.7474 10.2066C30.9386 8.40984 29.7776 6.79672 28.3035 5.40656C26.8294 4.02951 25.1205 2.94098 23.2159 2.18033C21.2461 1.39344 19.1588 1 17.0064 1C14.8539 1 12.7667 1.39344 10.7969 2.18033C8.89231 2.94098 7.1834 4.01639 5.7093 5.40656C4.2352 6.79672 3.0742 8.40984 2.2654 10.2066C1.43051 12.0689 1 14.0623 1 16.1082C1 19.6885 2.33059 23.1246 4.77003 25.8525L3.46551 33L10.4055 29.8918C12.4797 30.7836 14.6843 31.2295 16.9933 31.2295C19.1458 31.2295 21.233 30.8361 23.2028 30.0492C25.1074 29.2885 26.8163 28.2131 28.2904 26.823C29.7645 25.4328 30.9255 23.8197 31.7343 22.0229C32.5692 20.1607 32.9997 18.1672 32.9997 16.1213C33.0128 14.0623 32.5823 12.082 31.7474 10.2066Z" stroke="#525252" stroke-width="2"/>
<path d="M23.5027 19.1245C22.8243 18.7836 22.3286 18.5737 21.9764 18.4426C21.7547 18.3639 21.2328 18.1278 21.0502 18.2721C20.4762 18.7442 19.8631 20.0819 19.2108 20.3311C17.5932 20.0163 16.0931 18.9016 14.919 17.7606C14.3972 17.2622 13.4319 15.8458 13.2231 15.4655C13.184 15.0721 13.8884 14.5475 14.045 14.2458C14.8538 13.3278 14.2407 12.7508 14.1363 12.3704C13.9537 11.977 13.6406 11.2688 13.3666 10.6917C13.1318 10.3114 13.0796 9.74749 12.6622 9.53765C10.888 8.61962 9.87056 10.4557 9.45311 11.4131C6.93541 17.5114 22.0677 29.118 25.1464 21.118C25.3029 20.4229 25.2377 20.1606 25.0029 19.8458C24.5332 19.518 23.9853 19.3737 23.5027 19.1245Z" stroke="#525252" stroke-width="2"/>
</svg>
