<svg width="30" height="28" viewBox="0 0 30 28" fill="none" xmlns="http://www.w3.org/2000/svg">
<path d="M22.0802 0.133057H7.95314C4.05025 0.133057 0.875977 3.30732 0.875977 7.21021V20.1346C0.875977 24.0374 4.05025 27.2117 7.95314 27.2117H22.0802C25.9831 27.2117 29.1573 24.0374 29.1573 20.1346V7.21021C29.1573 3.30732 25.9831 0.133057 22.0802 0.133057ZM3.37227 7.21021C3.37227 4.68405 5.42697 2.62935 7.95314 2.62935H22.0802C24.6063 2.62935 26.661 4.68405 26.661 7.21021V20.1346C26.661 22.6607 24.6063 24.7154 22.0802 24.7154H7.95314C5.42697 24.7154 3.37227 22.6607 3.37227 20.1346V7.21021Z" fill="white"/>
<path d="M15.0162 20.2554C18.6464 20.2554 21.5998 17.3019 21.5998 13.6717C21.5998 10.0416 18.6464 7.08813 15.0162 7.08813C11.3861 7.08813 8.43262 10.0416 8.43262 13.6717C8.43262 17.3019 11.3861 20.2554 15.0162 20.2554ZM15.0162 9.58573C17.2696 9.58573 19.1022 11.4183 19.1022 13.6717C19.1022 15.9252 17.2696 17.7578 15.0162 17.7578C12.7628 17.7578 10.9302 15.9252 10.9302 13.6717C10.9302 11.4183 12.7628 9.58573 15.0162 9.58573Z" fill="white"/>
<path d="M22.2107 8.1519C23.1887 8.1519 23.9848 7.35573 23.9848 6.37774C23.9848 5.39974 23.1887 4.60358 22.2107 4.60358C21.2327 4.60358 20.4365 5.39974 20.4365 6.37774C20.4365 7.35573 21.2327 8.1519 22.2107 8.1519Z" fill="white"/>
</svg>
