<svg width="29" height="29" viewBox="0 0 29 29" fill="none" xmlns="http://www.w3.org/2000/svg">
<path d="M1.29863 6.23073C0.632271 5.61187 0.299805 4.8462 0.299805 3.93518C0.299805 3.02416 0.632271 2.22396 1.29863 1.6051C1.96498 0.986242 2.82274 0.676819 3.8748 0.676819C4.92686 0.676819 5.75009 0.986242 6.41501 1.6051C7.08136 2.22396 7.41383 3.00113 7.41383 3.93518C7.41383 4.86922 7.08136 5.61187 6.41501 6.23073C5.74865 6.84959 4.90239 7.15901 3.8748 7.15901C2.8472 7.15901 1.96498 6.84959 1.29863 6.23073ZM6.85253 9.77982V28.7443H0.8611V9.77982H6.85253Z" fill="#F9F9F9"/>
<path d="M26.8015 11.6522C28.1069 13.0698 28.7603 15.017 28.7603 17.4954V28.4103H23.0682V18.2653C23.0682 17.0161 22.7444 16.0446 22.0968 15.3524C21.4491 14.6601 20.5784 14.3147 19.4846 14.3147C18.3908 14.3147 17.5201 14.6616 16.8724 15.3524C16.2248 16.0446 15.901 17.0161 15.901 18.2653V28.4103H10.1758V9.72793H15.901V12.2063C16.481 11.3802 17.2625 10.7282 18.2454 10.2475C19.227 9.76824 20.3323 9.52789 21.5599 9.52789C23.7475 9.52789 25.4947 10.2374 26.8001 11.6536L26.8015 11.6522Z" fill="#F9F9F9"/>
</svg>
