<svg width="31" height="21" viewBox="0 0 31 21" fill="none" xmlns="http://www.w3.org/2000/svg">
<path d="M29.8328 5.89204C29.6525 4.13866 29.2615 2.20231 27.8241 1.18345C26.7091 0.393642 25.2453 0.364688 23.879 0.366004C20.9896 0.368637 18.1002 0.371261 15.2108 0.373894C12.432 0.376527 9.65315 0.379167 6.87434 0.3818C5.71332 0.3818 4.58521 0.292289 3.50712 0.793818C2.58041 1.22558 1.85641 2.04566 1.42202 2.95789C0.816494 4.22817 0.688809 5.66562 0.61641 7.07017C0.482142 9.62652 0.496623 12.1908 0.658534 14.7445C0.775689 16.6098 1.0745 18.6698 2.5159 19.8585C3.79408 20.9116 5.59748 20.9629 7.25345 20.9643C12.5136 20.9682 17.7737 20.9721 23.0339 20.9774C23.7078 20.9774 24.4121 20.9656 25.0992 20.8905C26.4524 20.7444 27.7411 20.3574 28.6099 19.3557C29.4866 18.346 29.7117 16.9389 29.846 15.608C30.1698 12.3803 30.1658 9.11841 29.8328 5.89204ZM12.1687 15.1986V6.14478L20.0102 10.6717L12.1687 15.1986Z" fill="white"/>
</svg>
